{"title":"Mannheim Steamroller - Christmas 1994 [EAC+FLAC+CUE+LOG]","uid":3944738,"size":212567801,"categoryP":"audio","categoryS":"flac","magnet":"?xt=urn:btih:f22aee523bd421e71c78c82d72579986b66a8105&amp;dn=Mannheim+Steamroller+-+Christmas+1994+%5BEAC%2BFLAC%2BCUE%2BLOG%5D&amp;tr=udp%3A%2F%2Ftracker.openbittorrent.com%3A80&amp;tr=udp%3A%2F%2Fopen.demonii.com%3A1337&amp;tr=udp%3A%2F%2Ftracker.coppersurfer.tk%3A6969&amp;tr=udp%3A%2F%2Fexodus.desync.com%3A6969","seeders":0,"leechers":2,"uploader":"LadyAbagail","files":18,"time":1198390456,"description":"Exact Audio Copy V0.99 prebeta 3 from 28. July 2007\n\nEAC extraction logfile from 22. December 2007, 23:56\n\nMannheim Steamroller / Christmas\n\nUsed drive  : SONY    DVD RW DW-D26A   Adapter: 1  ID: 0\n\nRead mode               : Secure\nUtilize accurate stream : Yes\nDefeat audio cache      : Yes\nMake use of C2 pointers : Yes\n\nRead offset correction                      : 12\nOverread into Lead-In and Lead-Out          : No\nFill up missing offset samples with silence : Yes\nDelete leading and trailing silent blocks   : No\nNull samples used in CRC calculations       : No\nUsed interface                              : Native Win32 interface for Win NT &amp; 2000\nGap handling                                : Not detected, thus appended to previous track\n\nUsed output format              : User Defined Encoder\nSelected bitrate                : 768 kBit/s\nQuality                         : High\nAdd ID3 tag                     : No\nCommand line compressor         : C:Program FilesExact Audio CopyFLACFLAC.EXE\nAdditional command line options : -8 -A tukey(0.25) -A gauss(0.1875) -V -T &quot;artist=%a&quot; -T &quot;title=%t&quot; -T &quot;album=%g&quot; -T &quot;date=%y&quot; -T &quot;tracknumber=%n&quot; -T &quot;genre=%m&quot; %s\n\n\nTOC of the extracted CD\n\n     Track |   Start  |  Length  | Start sector | End sector \n    ---------------------------------------------------------\n        1  |  0:00.00 |  3:43.27 |         0    |    16751   \n        2  |  3:43.27 |  3:44.43 |     16752    |    33594   \n        3  |  7:27.70 |  2:36.72 |     33595    |    45366   \n        4  | 10:04.67 |  2:43.35 |     45367    |    57626   \n        5  | 12:48.27 |  3:34.23 |     57627    |    73699   \n        6  | 16:22.50 |  2:24.25 |     73700    |    84524   \n        7  | 18:47.00 |  2:07.50 |     84525    |    94099   \n        8  | 20:54.50 |  1:29.27 |     94100    |   100801   \n        9  | 22:24.02 |  1:43.60 |    100802    |   108586   \n       10  | 24:07.62 |  4:25.10 |    108587    |   128471   \n       11  | 28:32.72 |  5:26.43 |    128472    |   152964   \n\n\nTrack  1\n\n     Filename Z:roxaudiomusicflacMannheim SteamrollerChristmasMannheim_Steamroller_-_Christmas_-_01_-_Deck_the_Halls.wav\n\n     Peak level 88.0 %\n     Track quality 100.0 %\n     Test CRC 2D4EDA19\n     Copy CRC 2D4EDA19\n     Accurately ripped (confidence 7)  [52AE7B3A]\n     Copy OK\n\nTrack  2\n\n     Filename Z:roxaudiomusicflacMannheim SteamrollerChristmasMannheim_Steamroller_-_Christmas_-_02_-_We_Three_Kings.wav\n\n     Peak level 52.4 %\n     Track quality 100.0 %\n     Test CRC 57AAEF61\n     Copy CRC 57AAEF61\n     Accurately ripped (confidence 6)  [1F7AE688]\n     Copy OK\n\nTrack  3\n\n     Filename Z:roxaudiomusicflacMannheim SteamrollerChristmasMannheim_Steamroller_-_Christmas_-_03_-_Bring_A_Torch,_Jeannette,_Isabella.wav\n\n     Peak level 46.8 %\n     Track quality 100.0 %\n     Test CRC D496A7BC\n     Copy CRC D496A7BC\n     Accurately ripped (confidence 7)  [DB1E1489]\n     Copy OK\n\nTrack  4\n\n     Filename Z:roxaudiomusicflacMannheim SteamrollerChristmasMannheim_Steamroller_-_Christmas_-_04_-_Coventry_Carol.wav\n\n     Peak level 38.3 %\n     Track quality 100.0 %\n     Test CRC 9CD557C3\n     Copy CRC 9CD557C3\n     Accurately ripped (confidence 7)  [0E6D329C]\n     Copy OK\n\nTrack  5\n\n     Filename Z:roxaudiomusicflacMannheim SteamrollerChristmasMannheim_Steamroller_-_Christmas_-_05_-_Good_King_Wenceslas.wav\n\n     Peak level 66.7 %\n     Track quality 100.0 %\n     Test CRC D37872B4\n     Copy CRC D37872B4\n     Accurately ripped (confidence 7)  [D45F1226]\n     Copy OK\n\nTrack  6\n\n     Filename Z:roxaudiomusicflacMannheim SteamrollerChristmasMannheim_Steamroller_-_Christmas_-_06_-_Christmas_Sweet-_Wassail,_Wassail.wav\n\n     Peak level 35.8 %\n     Track quality 100.0 %\n     Test CRC BC762B09\n     Copy CRC BC762B09\n     Accurately ripped (confidence 7)  [89DFA1DD]\n     Copy OK\n\nTrack  7\n\n     Filename Z:roxaudiomusicflacMannheim SteamrollerChristmasMannheim_Steamroller_-_Christmas_-_07_-_Christmas_Sweet-_Carol_of_the_Birds.wav\n\n     Peak level 22.4 %\n     Track quality 100.0 %\n     Test CRC FDA414FA\n     Copy CRC FDA414FA\n     Accurately ripped (confidence 7)  [3DBB799D]\n     Copy OK\n\nTrack  8\n\n     Filename Z:roxaudiomusicflacMannheim SteamrollerChristmasMannheim_Steamroller_-_Christmas_-_08_-_Christmas_Sweet-_I_Saw_Three_Ships.wav\n\n     Peak level 30.6 %\n     Track quality 100.0 %\n     Test CRC 8FBE344E\n     Copy CRC 8FBE344E\n     Accurately ripped (confidence 6)  [B80FA844]\n     Copy OK\n\nTrack  9\n\n     Filename Z:roxaudiomusicflacMannheim SteamrollerChristmasMannheim_Steamroller_-_Christmas_-_09_-_Christmas_Sweet-_God_Rest_Ye_Merry_Gentlemen.wav\n\n     Peak level 34.2 %\n     Track quality 100.0 %\n     Test CRC 0950663E\n     Copy CRC 0950663E\n     Accurately ripped (confidence 7)  [653E7022]\n     Copy OK\n\nTrack 10\n\n     Filename Z:roxaudiomusicflacMannheim SteamrollerChristmasMannheim_Steamroller_-_Christmas_-_10_-_God_Rest_Ye,_Merry_Gentlemen.wav\n\n     Peak level 94.5 %\n     Track quality 100.0 %\n     Test CRC 7135AD87\n     Copy CRC 7135AD87\n     Accurately ripped (confidence 7)  [8237B67D]\n     Copy OK\n\nTrack 11\n\n     Filename Z:roxaudiomusicflacMannheim SteamrollerChristmasMannheim_Steamroller_-_Christmas_-_11_-_Stille_Nacht.wav\n\n     Peak level 46.5 %\n     Track quality 100.0 %\n     Test CRC 43A27317\n     Copy CRC 43A27317\n     Accurately ripped (confidence 6)  [7C750340]\n     Copy OK\n\n\nAll tracks accurately ripped\n\nNo errors occurred\n\nEnd of status report\n","torrent":{"xt":"urn:btih:f22aee523bd421e71c78c82d72579986b66a8105","amp;dn":"Mannheim+Steamroller+-+Christmas+1994+%5BEAC%2BFLAC%2BCUE%2BLOG%5D","amp;tr":["udp%3A%2F%2Ftracker.openbittorrent.com%3A80","udp%3A%2F%2Fopen.demonii.com%3A1337","udp%3A%2F%2Ftracker.coppersurfer.tk%3A6969","udp%3A%2F%2Fexodus.desync.com%3A6969"],"infoHash":"f22aee523bd421e71c78c82d72579986b66a8105","infoHashBuffer":{"type":"Buffer","data":[242,42,238,82,59,212,33,231,28,120,200,45,114,87,153,134,182,106,129,5]},"announce":[],"urlList":[]}}